<svg width="168" height="30" viewBox="0 0 168 30" fill="none" xmlns="http://www.w3.org/2000/svg">
  <ellipse cx="22.5906" cy="25.4548" rx="16.1245" ry="4.54517" fill="#FFE7D7"/>
  <path d="M29.4354 14.7177C29.4354 22.8461 22.8461 29.4354 14.7177 29.4354C6.58934 29.4354 0 22.8461 0 14.7177C0 6.58934 6.58934 0 14.7177 0C22.8461 0 29.4354 6.58934 29.4354 14.7177Z" fill="#FF7720"/>
  <path d="M53.4654 22.006C51.4941 22.006 49.9201 21.3808 48.7432 20.1304C47.5811 18.88 47 17.2618 47 15.2758C47 13.2899 47.5884 11.6717 48.7653 10.4213C49.9569 9.17085 51.5236 8.54564 53.4654 8.54564C55.0689 8.54564 56.4076 8.95754 57.4814 9.78134C58.5553 10.5904 59.2615 11.7232 59.5998 13.1795L57.68 13.665C57.4594 12.6352 56.9813 11.8335 56.2457 11.2598C55.5249 10.6713 54.6128 10.3771 53.5095 10.3771C52.1267 10.3771 51.0308 10.8332 50.2217 11.7452C49.4273 12.6426 49.0301 13.8195 49.0301 15.2758C49.0301 16.7322 49.4273 17.9164 50.2217 18.8285C51.016 19.7258 52.112 20.1745 53.5095 20.1745C54.6128 20.1745 55.5249 19.8877 56.2457 19.3139C56.9813 18.7255 57.4594 17.9164 57.68 16.8867L59.5998 17.3721C59.2615 18.8285 58.548 19.9686 57.4594 20.7924C56.3855 21.6015 55.0542 22.006 53.4654 22.006Z" fill="#212121"/>
  <path d="M73.2853 8.8987H74.7858V21.653H73.2853L72.844 19.5346C71.8878 21.1822 70.277 22.006 68.0115 22.006C66.2462 22.006 64.7972 21.3808 63.6645 20.1304C62.5317 18.88 61.9654 17.2618 61.9654 15.2758C61.9654 13.2899 62.5391 11.6717 63.6865 10.4213C64.834 9.17085 66.2903 8.54564 68.0556 8.54564C70.2623 8.54564 71.8584 9.36944 72.844 11.0171L73.2853 8.8987ZM68.3866 20.1525C69.6959 20.1525 70.7551 19.7626 71.5642 18.9829C72.388 18.1886 72.7999 16.9602 72.7999 15.2979C72.7999 13.6797 72.388 12.4587 71.5642 11.6349C70.7404 10.8111 69.6738 10.3992 68.3646 10.3992C67.0259 10.3992 65.9593 10.8479 65.165 11.7452C64.3853 12.6426 63.9955 13.8195 63.9955 15.2758C63.9955 16.7322 64.3853 17.9091 65.165 18.8064C65.9593 19.7038 67.0332 20.1525 68.3866 20.1525Z" fill="#212121"/>
  <path d="M84.666 8.54564C86.343 8.54564 87.6155 9.0458 88.4834 10.0461C89.3514 11.0318 89.7853 12.4366 89.7853 14.2608V21.653H87.7994V14.4594C87.7994 13.0766 87.4757 12.0542 86.8285 11.3922C86.1959 10.7155 85.3059 10.3771 84.1584 10.3771C82.9227 10.3771 81.9224 10.7449 81.1574 11.4804C80.4072 12.2013 80.0321 13.1648 80.0321 14.3711V21.653H78.0461V8.8987H79.5466L79.9659 10.8626C80.9515 9.31795 82.5182 8.54564 84.666 8.54564Z" fill="#212121"/>
  <path d="M103.293 4H105.279V21.653H103.779L103.337 19.4684C102.322 21.1601 100.675 22.006 98.3944 22.006C96.688 22.006 95.2684 21.3808 94.1356 20.1304C93.0176 18.8653 92.4586 17.2471 92.4586 15.2758C92.4586 13.3046 93.0323 11.6937 94.1798 10.4433C95.3272 9.1782 96.7689 8.54564 98.5047 8.54564C100.741 8.54564 102.337 9.32531 103.293 10.8847V4ZM98.7695 20.1525C100.094 20.1672 101.175 19.7626 102.013 18.9388C102.867 18.1003 103.293 16.8793 103.293 15.2758C103.293 13.6576 102.874 12.444 102.035 11.6349C101.197 10.8111 100.116 10.3992 98.7916 10.3992C97.5118 10.3992 96.4747 10.8626 95.6803 11.7894C94.8859 12.7014 94.4887 13.8636 94.4887 15.2758C94.4887 16.7028 94.8712 17.8723 95.6361 18.7844C96.4158 19.6964 97.4603 20.1525 98.7695 20.1525Z" fill="#212121"/>
  <path d="M117.873 8.8987H119.859V20.7262C119.859 22.3738 119.344 23.661 118.314 24.5878C117.284 25.5293 115.902 26 114.166 26C111.635 26 109.789 25.2203 108.627 23.661L110.083 22.4915C110.966 23.6831 112.312 24.2788 114.122 24.2788C115.254 24.2788 116.159 23.9773 116.836 23.3741C117.527 22.7857 117.873 21.9178 117.873 20.7703V19.2257C116.902 20.7703 115.35 21.5426 113.217 21.5426C111.628 21.5426 110.422 21.0719 109.598 20.1304C108.774 19.1889 108.362 17.8061 108.362 15.9819V8.8987H110.348V15.8716C110.348 18.446 111.474 19.7332 113.724 19.7332C114.945 19.7332 115.938 19.3507 116.703 18.5858C117.483 17.8208 117.873 16.8352 117.873 15.6289V8.8987Z" fill="#212121"/>
  <path d="M131.232 8.54564C132.909 8.54564 134.299 9.16349 135.402 10.3992C136.506 11.6349 137.057 13.2604 137.057 15.2758C137.057 17.2912 136.506 18.9168 135.402 20.1525C134.299 21.3882 132.909 22.006 131.232 22.006C129.452 22.006 128.091 21.3882 127.15 20.1525V25.6469H123.619V8.8987H126.421L127.039 10.5316C127.981 9.20762 129.378 8.54564 131.232 8.54564ZM128.054 17.8355C128.657 18.4681 129.43 18.7844 130.371 18.7844C131.313 18.7844 132.063 18.4534 132.622 17.7914C133.196 17.1294 133.483 16.2909 133.483 15.2758C133.483 14.2608 133.196 13.4223 132.622 12.7603C132.063 12.0983 131.313 11.7673 130.371 11.7673C129.43 11.7673 128.657 12.0762 128.054 12.6941C127.451 13.2972 127.15 14.1578 127.15 15.2758C127.15 16.3497 127.451 17.2029 128.054 17.8355Z" fill="#212121"/>
  <path d="M149.607 8.8987H152.41V21.653H149.607L148.99 20.0642C148.063 21.3587 146.665 22.006 144.797 22.006C143.179 22.006 141.803 21.3882 140.671 20.1525C139.553 18.902 138.994 17.2691 138.994 15.2538C138.994 13.2531 139.56 11.6349 140.693 10.3992C141.825 9.16349 143.223 8.54564 144.885 8.54564C146.768 8.54564 148.151 9.15613 149.034 10.3771L149.607 8.8987ZM143.429 17.8355C144.003 18.4681 144.76 18.7844 145.702 18.7844C146.643 18.7844 147.408 18.4681 147.997 17.8355C148.585 17.1882 148.879 16.3276 148.879 15.2538C148.879 14.1652 148.585 13.3119 147.997 12.6941C147.408 12.0762 146.643 11.7673 145.702 11.7673C144.76 11.7673 144.003 12.0836 143.429 12.7161C142.855 13.334 142.568 14.1799 142.568 15.2538C142.568 16.3424 142.855 17.2029 143.429 17.8355Z" fill="#212121"/>
  <path d="M163.835 8.8987H167.366V20.7041C167.366 22.3664 166.799 23.661 165.667 24.5878C164.549 25.5293 163.011 26 161.055 26C159.451 26 158.135 25.7058 157.105 25.1174C156.09 24.5289 155.421 23.7272 155.097 22.7121L158.142 21.6971C158.392 22.1384 158.775 22.4768 159.29 22.7121C159.804 22.9622 160.385 23.0873 161.033 23.0873C161.886 23.0873 162.563 22.8813 163.063 22.4694C163.578 22.0575 163.835 21.4764 163.835 20.7262V19.2698C162.953 20.4908 161.606 21.1013 159.797 21.1013C156.693 21.1013 155.141 19.2772 155.141 15.6289V8.8987H158.672V15.4965C158.672 17.1441 159.451 17.9679 161.011 17.9679C161.835 17.9679 162.511 17.7031 163.041 17.1735C163.57 16.6439 163.835 15.8937 163.835 14.9228V8.8987Z" fill="#212121"/>
</svg>